<svg version="1.1" id="Layer_1" xmlns="http://www.w3.org/2000/svg" xmlns:xlink="http://www.w3.org/1999/xlink" x="0px" y="0px"
	 viewBox="0 0 12 12" enable-background="new 0 0 12 12" xml:space="preserve">
<path fill="#19171C" d="M6.712732,5.98857l5.148977-5.148977c0.194742-0.194742,0.194742-0.510224,0-0.704966
	c-0.194741-0.194742-0.510223-0.194742-0.704966,0L6.007767,5.283604L0.858789,0.134627
	c-0.194742-0.194742-0.510224-0.194742-0.704966,0s-0.194742,0.510224,0,0.704966L5.302801,5.98857l-5.148978,5.148977
	c-0.194742,0.194742-0.194742,0.510224,0,0.704967c0.097371,0.097371,0.224927,0.146056,0.352483,0.146056
	s0.255112-0.048685,0.352483-0.146056l5.148978-5.148978l5.148977,5.148978c0.097371,0.097371,0.224927,0.146056,0.352483,0.146056
	s0.255113-0.048685,0.352483-0.146056c0.194742-0.194742,0.194742-0.510224,0-0.704967L6.712732,5.98857z"/>
</svg>
